<?xml version="1.0" encoding="utf-8"?>
<svg viewBox="0 0 500 500" xmlns="http://www.w3.org/2000/svg">
  <defs/>
  <path style="stroke: rgb(0, 0, 0); fill: none;" d="M 17.108 180.191 C 17.108 180.191 9.677 195.694 18.476 210.965 C 27.275 226.236 46.921 205.551 46.921 205.551 C 46.921 205.551 73.603 149.79 64.837 99.169 C 56.071 48.548 54.087 54.222 54.087 54.222 C 54.087 54.222 66.65 102.521 84.048 114.377 C 101.446 126.233 128.141 65.137 122.302 56.818 C 116.463 48.499 143.043 606.32 65.938 359.4"/>
  <path style="stroke: rgb(0, 0, 0); fill: none;" d="M 139.567 201.644 C 139.567 201.644 142.487 225.137 150.395 231.478 C 158.303 237.819 177.373 241.719 177.309 211.692 C 177.245 181.665 186.546 151.672 176.206 141.881 C 165.866 132.09 147.654 126.914 143.048 145.133"/>
  <path style="stroke: rgb(0, 0, 0); fill: none;" d="M 187.702 234.143 C 187.702 234.143 178.214 235.399 176.909 215.359"/>
  <path style="stroke: rgb(0, 0, 0); fill: none;" d="M 252.164 171.172 C 252.164 171.172 252.909 109.816 236.306 114.473 C 219.703 119.13 217.862 103.054 203.227 233.499 C 203.227 233.499 218.127 143.61 209.854 125.867 C 201.581 108.124 195.422 120.147 195.422 120.147"/>
  <path style="stroke: rgb(0, 0, 0); transform-box: fill-box; transform-origin: 50% 50%; fill: none;" d="M 381.612 140.406 C 381.612 140.406 374.73 156.26 384.069 171.054 C 393.408 185.848 412.322 164.198 412.322 164.198 C 412.322 164.198 437.032 107.176 426.475 57.094 C 415.918 7.011 414.135 12.776 414.135 12.776 C 414.135 12.776 428.407 60.347 446.224 71.294 C 464.041 82.24 492.35 13.763 482.442 11.886 C 476.86 10.829 522.959 563.583 436.782 316.798" transform="matrix(-0.999059, -0.043369, 0.043369, -0.999059, -0.285047, -2.196329)"/>
  <path style="stroke: rgb(0, 0, 0); fill: none; transform-box: fill-box; transform-origin: 50% 50%;" d="M 326.027 193.322 C 326.027 193.322 329.778 216.623 337.91 222.549 C 346.043 228.475 365.251 231.395 364.124 201.425 C 362.998 171.456 371.238 141.042 360.552 131.797 C 349.865 122.551 331.47 118.314 327.509 136.735" transform="matrix(-0.999059, -0.043369, 0.043369, -0.999059, 0.000063, 0.000021)"/>
  <path style="stroke: rgb(0, 0, 0); fill: none; transform-box: fill-box; transform-origin: 50% 50%;" d="M 329.41 147.879 C 329.41 147.879 319.966 149.616 317.952 129.679" transform="matrix(-0.999059, -0.043369, 0.043369, -0.999059, -0.000011, -0.00002)"/>
  <path style="stroke: rgb(0, 0, 0); fill: none; transform-box: fill-box; transform-origin: 50% 50%;" d="M 307.357 173.481 C 307.357 173.481 305.931 112.198 289.493 117.695 C 273.055 123.191 270.645 107.238 260.625 238.194 C 260.625 238.194 272.345 147.707 263.444 130.418 C 254.543 113.13 248.81 125.445 248.81 125.445" transform="matrix(-0.999059, -0.043369, 0.043369, -0.999059, -0.00003, -0.000018)"/>
  <path style="stroke: rgb(0, 0, 0); fill: none;" d="M 427.78 128.492 C 427.78 128.492 431.694 112.592 421.74 116.839 C 411.786 121.086 410.731 135.251 402.194 148.422 C 393.657 161.593 380.424 170.568 380.424 170.568 C 380.424 170.568 403.191 182.663 402.273 198.514 C 401.355 214.365 416.873 224.414 417.887 212.222 C 418.901 200.03 417.244 202.497 414.94 198.817"/>
  <path style="stroke: rgb(0, 0, 0); fill: none; transform-box: fill-box; transform-origin: 50% 50%;" d="M 120.53 170.33 C 120.53 170.33 124.422 155.022 114.526 159.112 C 104.628 163.2 103.58 176.839 95.091 189.52 C 86.605 202.2 73.446 210.842 73.446 210.842 C 73.446 210.842 96.082 222.488 95.17 237.751 C 94.257 253.01 109.686 262.686 110.694 250.947 C 111.704 239.21 110.056 241.585 107.765 238.041" transform="matrix(-1, 0, 0, -1, 0.000011, -0.000019)"/>
</svg>